PathFileType	4	(X/Y/Z)	C:/Users/opensim2020/Desktop/walking_exp_matlab/subject06_walking17_straight_02.trc	
DataRate	CameraRate	NumFrames	NumMarkers	Units	OrigDataRate	OrigDataStartFrame	OrigNumFrames	
100.00	100.00	8	45	mm	100.00	2407	334	
Frame#	Time	LFHD			RFHD			LBHD			RBHD			C7			T10			CLAV			STRN			RBAK			LSHO			LUPA			LELB			LFRM			LWRA			LWRB			LFIN			RSHO			RUPA			RELB			RFRM			RWRA			RWRB			RFIN			LASI			RASI			LPSI			RPSI			LTHI			LKNE			LTIB			LANK			LHEE			LTOE			RTHI			RKNE			RTIB			RANK			RHEE			RTOE			*39			*40			*41			*42			*43			*44			
		X1	Y1	Z1	X2	Y2	Z2	X3	Y3	Z3	X4	Y4	Z4	X5	Y5	Z5	X6	Y6	Z6	X7	Y7	Z7	X8	Y8	Z8	X9	Y9	Z9	X10	Y10	Z10	X11	Y11	Z11	X12	Y12	Z12	X13	Y13	Z13	X14	Y14	Z14	X15	Y15	Z15	X16	Y16	Z16	X17	Y17	Z17	X18	Y18	Z18	X19	Y19	Z19	X20	Y20	Z20	X21	Y21	Z21	X22	Y22	Z22	X23	Y23	Z23	X24	Y24	Z24	X25	Y25	Z25	X26	Y26	Z26	X27	Y27	Z27	X28	Y28	Z28	X29	Y29	Z29	X30	Y30	Z30	X31	Y31	Z31	X32	Y32	Z32	X33	Y33	Z33	X34	Y34	Z34	X35	Y35	Z35	X36	Y36	Z36	X37	Y37	Z37	X38	Y38	Z38	X39	Y39	Z39	X40	Y40	Z40	X41	Y41	Z41	X42	Y42	Z42	X43	Y43	Z43	X44	Y44	Z44	X45	Y45	Z45	

251	2.500	1473.47986	-383.93085	1664.35742	1341.78369	-379.35898	1650.58887	1479.05200	-250.26614	1610.13916	1350.01001	-247.53922	1601.99988	1415.42371	-248.31709	1452.00903	1402.81177	-207.18095	1124.15845	1420.56836	-355.92911	1373.32336	1424.84363	-392.20450	1197.03711	1321.25366	-181.73227	1286.08643	1579.26270	-291.33218	1401.67920	1648.15552	-261.03146	1200.63525	1658.27673	-241.69360	1089.87134	1680.17554	-253.80984	940.11127	1644.28455	-312.14084	823.54584	1669.70007	-245.07707	820.17432	1675.23962	-281.42203	737.21838	1258.46936	-330.01852	1410.94373	1158.58826	-318.83975	1215.13330	1141.12903	-341.17645	1095.86169	1120.79333	-374.15326	980.75836	1153.50256	-447.80145	849.12598	1106.84705	-399.38455	845.85327	1104.25977	-447.43475	777.38953	1514.57324	-386.06918	963.32971	1294.50366	-382.99606	966.18610	1488.59766	-226.88983	988.38818	1320.32263	-232.45436	995.73926	1585.50830	-378.32465	655.02740	1558.67456	-438.77344	504.12518	1561.84412	-449.27014	251.13179	1530.26440	-479.94748	79.01817	1485.70984	-441.19357	58.79314	1518.57434	-626.16974	62.11881	1255.83167	-296.68179	632.22040	1280.66541	-280.77338	507.27045	1298.99854	-188.78276	253.78899	1359.70447	-148.09442	74.84249	1408.17725	-108.88316	54.34216	1350.83350	-298.28516	36.46329	1416.48047	-281.65964	1701.34460															 
252	2.510	1473.84045	-390.15430	1663.43274	1342.09192	-385.81909	1649.63586	1479.06714	-256.46735	1609.12390	1350.04614	-253.95187	1601.06140	1415.30798	-254.66470	1450.98633	1403.04785	-213.66730	1123.06409	1420.85913	-362.34445	1372.30457	1425.36963	-398.63708	1196.09521	1321.06641	-188.39613	1284.92102	1579.35547	-297.19101	1400.67212	1648.13696	-266.14072	1199.76599	1658.14038	-246.20845	1089.08899	1680.09375	-257.53317	939.26172	1644.11865	-315.25439	822.45343	1669.53320	-248.49466	819.17554	1675.13135	-284.02899	736.19763	1258.65820	-336.83109	1409.76648	1158.76208	-325.86139	1213.93005	1141.25684	-348.04187	1094.66467	1121.05469	-381.00159	979.54810	1153.97937	-454.51431	847.86060	1107.12048	-406.31528	844.62073	1104.67554	-454.19717	776.11438	1514.73450	-392.89355	962.32703	1294.75671	-389.39084	965.28705	1489.04138	-233.71104	987.41376	1320.71851	-238.86781	994.75397	1586.03296	-384.85822	653.95923	1558.87671	-445.15057	503.27740	1561.46423	-462.92447	250.58698	1529.49109	-499.01831	79.46862	1485.19312	-461.13211	57.85859	1516.58655	-645.95044	66.21393	1255.99609	-301.91373	631.42090	1280.73474	-285.34528	506.54150	1299.10107	-190.91672	253.76169	1359.83167	-148.41306	75.22878	1407.96509	-108.83064	54.92482	1350.82458	-298.29025	36.41837	1416.59485	-288.00208	1700.38391															 
253	2.520	1474.13696	-396.40646	1662.37952	1342.42261	-392.37393	1648.66138	1479.08740	-262.71143	1608.08435	1349.99939	-260.48502	1599.99805	1415.22180	-261.16412	1449.87085	1403.43970	-220.20256	1121.95251	1421.16052	-368.84689	1371.26294	1425.91260	-405.15851	1195.10608	1320.96228	-195.09741	1283.73438	1579.49915	-303.03549	1399.66821	1648.09900	-271.24045	1198.86792	1658.07666	-250.80824	1088.25293	1680.00464	-261.41821	938.33972	1644.00317	-318.51929	821.10663	1669.92212	-251.68732	818.41766	1675.00427	-286.90860	735.06445	1258.85730	-343.75266	1408.49817	1158.99487	-332.77097	1212.62561	1141.49536	-354.94742	1093.35010	1121.42834	-387.82578	978.15497	1154.65332	-461.38644	846.56500	1107.52136	-413.10190	843.27881	1105.22437	-460.92123	774.67767	1514.92004	-399.73535	961.30365	1295.06763	-395.79651	964.35834	1489.67749	-240.57776	986.40753	1321.29907	-245.25063	993.69464	1586.48706	-391.87131	653.03754	1558.95349	-451.51166	502.33295	1561.07654	-475.83261	250.03191	1528.45447	-517.33832	80.14926	1484.22522	-479.65552	57.48463	1514.96265	-664.62585	70.92278	1256.28430	-307.20419	630.52454	1280.95544	-290.11725	505.66678	1299.33411	-193.18990	253.69038	1359.93933	-148.76060	75.67114	1408.34949	-109.25052	55.45371	1350.83276	-298.34979	36.34870	1416.66077	-294.30542	1699.34827															 
254	2.530	1474.51257	-402.68884	1661.34070	1342.70093	-398.95093	1647.64600	1479.11475	-269.02240	1606.99304	1350.06592	-267.06454	1598.91467	1415.29968	-267.62869	1448.81274	1403.88623	-226.80841	1120.81531	1421.58313	-375.44287	1370.18176	1426.47339	-411.71875	1194.03503	1320.92041	-201.85547	1282.51135	1579.68066	-308.98312	1398.62244	1648.10083	-276.36832	1197.95630	1658.04358	-255.52370	1087.41089	1680.03015	-265.53033	937.45282	1643.95557	-322.26840	820.02106	1669.99231	-255.37001	817.76868	1674.88525	-290.09476	733.99231	1259.09741	-350.71710	1407.16492	1159.22339	-339.68369	1211.25171	1141.77954	-361.74628	1091.95020	1121.91382	-394.55554	976.73517	1155.31726	-467.89316	845.03632	1108.14990	-419.79645	841.80542	1105.93640	-467.53433	773.19324	1515.16272	-406.57227	960.20038	1295.44849	-402.22043	963.34125	1490.39856	-247.44997	985.38342	1322.02869	-251.69127	992.61652	1586.95129	-399.21399	652.11108	1558.96631	-457.99713	501.36929	1560.68823	-488.07391	249.48514	1527.52002	-534.31702	80.78039	1483.28687	-498.03317	56.95331	1513.77734	-682.01611	75.85325	1256.56177	-312.71869	629.61865	1281.24683	-295.14847	504.75790	1299.57568	-195.66019	253.63573	1360.03516	-149.15092	76.12044	1408.23962	-109.21947	56.22168	1350.86938	-298.41492	36.27265	1416.78137	-300.71722	1698.24146															 
255	2.540	1474.81934	-409.01846	1660.26306	1343.05286	-405.52191	1646.55908	1479.14429	-275.30826	1605.85132	1350.09314	-273.70319	1597.75085	1415.29785	-274.37207	1447.57495	1404.45752	-233.43082	1119.63452	1422.03174	-382.10074	1369.13953	1427.09546	-418.40567	1192.93896	1320.96021	-208.64899	1281.29163	1579.81909	-315.05338	1397.49915	1648.21423	-281.55850	1197.07471	1658.01465	-260.43524	1086.53308	1679.98010	-269.76697	936.54053	1644.04529	-326.20074	818.82758	1670.02771	-259.36368	816.77606	1674.87256	-293.58640	732.94562	1259.41296	-357.73502	1405.80249	1159.61438	-346.58447	1209.81067	1142.23669	-368.50342	1090.47144	1122.49487	-401.31073	975.24927	1156.13794	-474.44016	843.55658	1108.85950	-426.38126	840.33386	1106.84973	-474.14557	771.69836	1515.44348	-413.48587	959.08740	1295.85840	-408.72318	962.26801	1491.28149	-254.35873	984.35730	1322.82251	-258.10245	991.50305	1587.27148	-406.71185	651.11066	1558.91797	-464.51910	500.37613	1560.26514	-499.78476	248.89919	1526.53113	-550.46814	81.54013	1481.98865	-514.64594	56.93311	1513.09692	-698.37891	80.59653	1256.99097	-318.19141	628.76147	1281.65320	-300.19202	503.94675	1299.90649	-198.15883	253.59377	1360.19812	-149.57332	76.65417	1408.40222	-109.48824	56.96851	1350.88782	-298.49881	36.25588	1416.89795	-307.04535	1697.13538															 
256	2.550	1475.13623	-415.26651	1659.29614	1343.41064	-412.14130	1645.50122	1479.24512	-281.68207	1604.67786	1350.21436	-280.34418	1596.52588	1415.50476	-280.92590	1446.51453	1405.03162	-240.11998	1118.44812	1422.50146	-388.77853	1368.01526	1427.76416	-425.15561	1191.79797	1320.92822	-215.17583	1280.04272	1580.18274	-320.96213	1396.52246	1648.32385	-286.82016	1196.15442	1657.94849	-265.46259	1085.67920	1679.65930	-274.20364	935.45349	1644.18787	-330.35208	817.62555	1669.65857	-263.56528	815.75000	1674.82556	-297.34509	731.92645	1259.77502	-364.79175	1404.42065	1160.05713	-353.59970	1208.34192	1142.79248	-375.24838	1089.00574	1123.15491	-408.02325	973.71661	1157.01721	-480.76367	841.85858	1109.64001	-432.96890	838.76398	1107.78796	-480.68564	770.06879	1515.73572	-420.62775	957.75922	1296.35437	-415.39368	961.22290	1492.17151	-261.28659	983.27063	1323.72595	-264.60165	990.36292	1587.37183	-414.35291	650.02307	1558.73413	-471.04907	499.37100	1559.84241	-510.99936	248.33235	1525.52356	-565.43591	82.21317	1480.83325	-530.55524	56.81072	1512.80994	-713.48053	84.83181	1257.50293	-323.81125	627.92090	1282.07617	-305.26135	503.07730	1300.23938	-200.70049	253.62299	1360.34497	-150.06094	77.23334	1408.54456	-109.71256	57.84216	1350.94165	-298.47372	36.26433	1417.02600	-313.49377	1695.95435															 
257	2.560	1475.54065	-421.68674	1658.32349	1343.72876	-418.68887	1644.42432	1479.39111	-288.11288	1603.49500	1350.37915	-287.05707	1595.26685	1415.66663	-287.80228	1445.24854	1405.78479	-246.85968	1117.26746	1423.05225	-395.53387	1366.94629	1428.51062	-431.94556	1190.70557	1321.37524	-222.37320	1278.89294	1580.47766	-327.26300	1395.44824	1648.50391	-292.22470	1195.28308	1658.03198	-270.69992	1084.85632	1679.92639	-278.97705	934.71783	1644.46008	-334.91064	816.61682	1670.11670	-267.81165	815.20667	1674.85168	-301.51187	730.94879	1260.21228	-371.91843	1403.04907	1160.63281	-360.67752	1206.91077	1143.45349	-382.02753	1087.50452	1123.99402	-414.60629	972.14404	1158.09790	-487.19202	840.24054	1110.60522	-439.50006	837.15509	1108.87659	-487.03021	768.39923	1516.16809	-427.57059	956.62244	1296.79297	-421.84189	959.94678	1493.28210	-268.25601	982.20996	1324.70105	-271.22681	989.23077	1587.22302	-421.85321	648.82977	1558.48828	-477.63263	498.39920	1559.43909	-521.69165	247.84697	1524.73853	-579.35120	82.86137	1479.71436	-545.26520	56.94253	1512.97693	-727.42731	88.49033	1258.12952	-329.50525	627.05542	1282.60144	-310.38571	502.28613	1300.60925	-203.25977	253.65904	1360.40784	-150.48935	77.90231	1408.97791	-110.24995	58.75808	1351.01038	-298.73907	36.19758	1417.16553	-319.90179	1694.79187															 
258	2.570	1475.90039	-428.05368	1657.41956	1344.16650	-425.45029	1643.39795	1479.60559	-294.65079	1602.31543	1350.53394	-293.79495	1593.97791	1415.96484	-294.55972	1444.23254	1406.59436	-253.64079	1116.15369	1423.64380	-402.23572	1365.85278	1429.21423	-438.71512	1189.51257	1321.73486	-228.86452	1277.84473	1581.01685	-333.47742	1394.57117	1648.77173	-297.82251	1194.50464	1658.08411	-276.01157	1084.06702	1680.00879	-283.84030	933.88275	1644.82690	-339.90063	815.77649	1670.02869	-272.66342	814.36249	1674.93750	-305.98883	730.03271	1260.69128	-379.00235	1401.67090	1161.34534	-367.61636	1205.41321	1144.24658	-388.77921	1085.99194	1124.92786	-421.17514	970.54193	1159.21594	-493.38574	838.52972	1111.72363	-445.90683	835.59326	1110.10742	-493.30551	766.77985	1516.75354	-434.53360	955.54022	1297.37207	-428.51141	958.82080	1494.43201	-275.31705	981.07361	1325.68018	-277.77228	988.13824	1586.97595	-429.31201	647.64246	1558.26282	-484.32458	497.44400	1559.05261	-531.63849	247.38657	1524.06958	-592.23492	83.58514	1478.77649	-558.66681	57.02461	1513.37378	-739.97577	91.26244	1258.83093	-335.07016	626.24243	1283.09998	-315.52948	501.44110	1300.99561	-205.88788	253.85576	1360.44678	-151.00812	78.68130	1408.61768	-110.27605	60.02849	1351.20947	-298.71085	36.10544	1417.30701	-326.32040	1693.62439															 
